<svg width="36" height="40" viewBox="0 0 36 40" fill="none" xmlns="http://www.w3.org/2000/svg">
<path fill-rule="evenodd" clip-rule="evenodd" d="M1.35313 1.71477C1.10152 2.15306 0.959473 2.72556 0.959473 3.4145V36.5885C0.959473 37.279 1.10169 37.8512 1.35359 38.2892L19.6393 20.0009L1.35313 1.71477ZM2.04397 39.0131C2.73667 39.4349 3.70424 39.3939 4.77097 38.789L26.2321 26.5937L20.3464 20.708L2.04397 39.0131ZM27.1348 26.0823L34.0225 22.169C36.118 20.9765 36.118 19.028 34.0225 17.837L27.1319 13.9216L21.0534 20.0009L27.1348 26.0823ZM26.2301 13.4092L4.77097 1.21551C3.70422 0.609317 2.73663 0.569171 2.04393 0.991356L20.3463 19.2938L26.2301 13.4092Z" fill="#F17228"/>
</svg>
