<svg width="18" height="26" viewBox="0 0 18 26" fill="none" xmlns="http://www.w3.org/2000/svg">
<path d="M8.0625 24.4731C8.48438 25.1294 9.46875 25.1294 9.89062 24.4731C16.7344 14.6294 18 13.5981 18 9.94189C18 4.97314 13.9688 0.941895 9 0.941895C3.98438 0.941895 0 4.97314 0 9.94189C0 13.5981 1.21875 14.6294 8.0625 24.4731ZM9 13.6919C6.89062 13.6919 5.25 12.0513 5.25 9.94189C5.25 7.87939 6.89062 6.19189 9 6.19189C11.0625 6.19189 12.75 7.87939 12.75 9.94189C12.75 12.0513 11.0625 13.6919 9 13.6919Z" fill="#FF7474"/>
</svg>
